# xmcd CD database file
# Copyright (C) 1995-1998 Ti Kan
#
# Track frame offsets:
#	150
#	25796
#	33318
#	57126
#	65906
#	84693
#	94841
#	112679
#	126818
#	150877
#	171932
#	183117
#	209135
#
# Disc length: 3187 seconds
#
# Revision: 1
# Processed by: cddbd v1.4PL0 Copyright (c) Steve Scherf et al.
# Submitted via: CDex 1.30Release
#
DISCID=a60c710d
DTITLE=Old Number Eight - Live at Martyrs'
DYEAR=2000
DGENRE=Country
TTITLE0=Alimony Song
TTITLE1=Sun Burns My Eyes
TTITLE2=Goliath
TTITLE3=Don't Even Have a Song to Sing
TTITLE4=Miss You
TTITLE5=Theresa Song
TTITLE6=Adam
TTITLE7=Livin' Low
TTITLE8=Drunkard #3
TTITLE9=End of the World
TTITLE10=Untitled
TTITLE11=Down to the River
TTITLE12=Around This Time
EXTD=YEAR: 2000 ID3G:   2
EXTT0=
EXTT1=
EXTT2=
EXTT3=
EXTT4=
EXTT5=
EXTT6=
EXTT7=
EXTT8=
EXTT9=
EXTT10=
EXTT11=
EXTT12=
PLAYORDER=
